<?xml version="1.0" encoding="UTF-8" standalone="no"?>
<!DOCTYPE svg PUBLIC "-//W3C//DTD SVG 20010904//EN" "http://www.w3.org/TR/2001/REC-SVG-20010904/DTD/svg10.dtd">
<svg version="1.0" xmlns="http://www.w3.org/2000/svg" width="301.727054pt" height="318.000000pt" viewBox="0 0 301.727054 318.000000" preserveAspectRatio="xMidYMid meet">
<g transform="translate(-99.307885,411.000000) scale(0.100000,-0.100000)" fill="none" stroke="none">
    <style>
        path { fill: #000; }
        @media (prefers-color-scheme: dark) {
            path { fill: #FFF; }
        }
    </style>
    <path d="M2485 4101 c-10 -9 -316 -176 -415 -227 -118 -60 -500 -274 -584 -327 -49 -31 -109 -74 -134 -94 -25 -21 -49 -40 -54 -41 -4 -2 -22 -24 -39 -48 -188 -274 -295 -671 -259 -969 33 -281 190 -682 305 -784 107 -93 351 -250 620 -398 230 -126 552 -283 581 -283 20 0 514 253 759 388 115 64 282 172 403 262 l84 61 68 142 c225 468 249 857 79 1293 -36 92 -158 313 -197 357 -21 23 -128 94 -212 139 -36 20 -101 55 -145 78 -44 24 -136 75 -205 113 -288 161 -632 347 -640 347 -3 0 -10 -4 -15 -9z m95 -205 c30 -16 57 -30 59 -32 2 -2 -4 -19 -14 -38 l-19 -35 -83 -3 -84 -3 -24 40 -23 40 61 32 c34 18 64 31 67 30 3 -1 30 -15 60 -31z m-205 -167 c6 -17 19 -19 144 -19 l139 0 33 55 c18 30 38 55 44 55 5 0 21 -9 34 -19 l24 -19 -31 -56 -32 -56 63 -110 62 -110 138 0 c106 0 137 3 137 13 0 18 57 107 69 107 5 0 19 -9 32 -19 l24 -19 -28 -58 -28 -57 32 -61 c17 -34 45 -82 61 -108 l30 -48 137 0 137 0 18 31 18 31 23 -27 c20 -22 22 -31 13 -55 -8 -24 -6 -35 9 -57 11 -15 40 -63 64 -106 24 -43 50 -88 56 -100 18 -31 16 -54 -4 -59 -10 -3 -44 -53 -76 -112 -53 -96 -57 -109 -44 -124 8 -9 36 -56 62 -104 47 -88 47 -88 86 -88 36 0 39 -2 39 -27 0 -40 -11 -51 -50 -55 -31 -3 -38 -9 -70 -68 -20 -36 -46 -83 -59 -106 l-23 -41 46 -76 46 -75 -19 -41 -18 -42 -27 35 c-14 20 -41 63 -60 96 -18 34 -36 61 -39 61 -4 -1 -67 -1 -141 -1 l-133 0 -57 -101 -57 -101 18 -37 c11 -20 38 -71 62 -113 l42 -77 102 -3 c60 -2 102 -7 101 -13 0 -5 -21 -21 -45 -35 -33 -18 -59 -25 -103 -25 l-59 0 -31 -56 c-23 -42 -42 -62 -84 -87 -30 -18 -57 -30 -60 -28 -5 6 14 45 69 146 l36 65 -60 108 -60 107 -123 0 c-67 0 -129 2 -136 5 -9 4 -21 -10 -36 -40 -12 -24 -40 -74 -62 -111 l-40 -65 63 -115 62 -115 122 3 c67 2 124 0 128 -4 3 -3 -26 -22 -66 -42 -59 -30 -82 -36 -134 -36 -57 0 -63 -2 -73 -25 -7 -14 -12 -32 -12 -40 0 -16 -118 -80 -128 -70 -4 3 0 18 9 33 8 15 30 55 49 89 l34 61 -60 107 c-33 59 -63 107 -67 106 -4 -1 -65 -1 -137 -1 l-129 0 -42 -72 c-23 -40 -51 -89 -64 -108 l-22 -35 20 -35 c59 -105 88 -165 80 -167 -5 -2 -33 10 -62 26 -43 23 -59 39 -81 82 -30 60 -49 68 -113 49 -38 -11 -43 -9 -162 50 -135 66 -175 93 -175 117 0 8 -10 33 -22 54 -20 37 -24 39 -69 39 -26 0 -50 -4 -54 -10 -7 -12 -29 -4 -94 38 -70 44 -58 52 85 52 l111 0 63 112 c55 100 60 115 49 133 -7 11 -32 53 -55 92 -22 40 -46 78 -52 85 -8 10 -44 12 -144 10 l-133 -4 -34 -56 c-19 -31 -47 -81 -63 -109 -16 -29 -34 -53 -39 -53 -13 0 -52 82 -42 89 13 8 106 164 106 176 0 6 -25 55 -57 110 l-57 100 -54 0 c-29 0 -55 2 -58 5 -2 3 -7 22 -10 43 l-6 37 63 0 c62 0 64 1 77 31 7 18 33 66 59 109 l46 77 -60 106 c-60 106 -61 107 -98 107 -41 0 -43 4 -32 60 6 29 10 32 38 27 30 -4 32 -2 92 103 l61 107 -19 37 c-19 37 -19 37 3 68 l22 31 24 -29 c13 -16 26 -37 29 -47 5 -16 19 -17 145 -15 l140 3 60 103 59 103 -29 52 c-44 80 -45 89 -11 109 l29 17 36 -58 c19 -32 35 -64 35 -70 0 -8 43 -11 139 -11 l138 0 65 112 65 112 -28 46 c-37 61 -38 74 -9 98 l25 20 32 -45 c18 -25 35 -54 38 -64z m-181 -14 l27 -45 -41 -70 -41 -70 -84 0 -85 0 -24 48 -24 48 71 36 c40 20 92 50 117 66 25 17 48 31 52 31 3 1 18 -19 32 -44z m846 -60 l76 -37 -21 -44 -20 -43 -85 -1 -85 0 -38 61 c-42 66 -43 86 -7 132 l21 26 42 -28 c23 -16 76 -46 117 -66z m-1310 -196 c27 -45 29 -53 17 -68 -8 -9 -27 -40 -43 -68 l-29 -53 -82 0 -81 0 -21 36 c-12 19 -21 39 -21 43 0 5 46 40 103 77 56 38 104 72 105 76 8 17 22 5 52 -43z m1695 -22 c44 -26 95 -61 114 -76 33 -27 33 -27 17 -59 l-17 -32 -82 0 -83 0 -42 70 c-23 39 -42 72 -42 75 0 11 43 75 49 73 4 -2 42 -25 86 -51z m-2175 -716 c22 -38 40 -72 40 -76 0 -4 -18 -38 -41 -76 -38 -66 -43 -70 -72 -67 -30 3 -32 6 -35 48 -2 25 1 89 8 143 12 92 14 97 36 97 18 0 32 -15 64 -69z m2608 -105 c4 -97 2 -118 -9 -114 -15 5 -88 125 -89 145 0 7 16 40 37 74 35 60 37 62 46 38 5 -13 12 -77 15 -143z m-2615 -388 c9 -18 25 -47 36 -64 l21 -30 -31 -49 c-36 -56 -35 -57 -73 60 -34 103 -33 115 2 115 22 0 32 -7 45 -32z m2593 15 c-31 -108 -49 -163 -52 -163 -2 0 -10 13 -18 28 -14 27 -13 32 22 90 35 59 59 82 48 45z m-2117 -294 l41 -72 -43 -71 -43 -71 -80 -3 -79 -3 -48 71 c-53 79 -53 69 9 168 l34 52 84 0 83 0 42 -71z m1840 43 c6 -15 24 -47 40 -71 l29 -43 -39 -64 c-22 -35 -39 -68 -39 -74 0 -6 -35 -10 -88 -10 l-88 0 -17 33 c-9 17 -28 53 -43 79 l-27 47 39 65 39 66 91 0 c91 0 92 0 103 -28z m-443 -298 l43 -78 -20 -27 c-11 -15 -30 -47 -43 -70 l-25 -42 -81 1 c-45 0 -83 2 -84 4 -1 2 -21 33 -44 71 l-42 67 21 42 c12 24 32 58 45 78 l23 35 82 -2 82 -1 43 -78z m-468 -258 l42 -74 -42 -71 -43 -71 -82 0 -82 0 -41 69 c-22 38 -40 72 -40 76 0 4 18 38 40 76 l41 69 82 0 83 0 42 -74z m-58 -294 c0 -5 -18 -20 -41 -35 l-40 -27 -40 26 c-22 13 -37 29 -34 34 7 12 155 13 155 2z"/>
    <path d="M2362 3588 c-12 -24 -39 -72 -60 -108 l-38 -64 64 -111 64 -110 131 0 132 0 63 110 c46 79 61 114 55 125 -5 8 -33 57 -62 108 l-53 92 -137 0 -137 0 -22 -42z m263 -63 c5 -11 22 -41 37 -67 l28 -46 -43 -71 -42 -70 -81 -1 -82 0 -30 48 c-59 91 -59 91 -16 166 l39 67 90 -3 c78 -3 91 -6 100 -23z"/>
    <path d="M2982 3370 l-134 -5 -59 -103 -59 -102 62 -110 63 -110 135 0 136 0 27 53 c15 28 42 78 61 110 l34 59 -50 87 c-78 136 -61 127 -216 121z m128 -133 c19 -34 36 -67 38 -73 1 -6 -14 -41 -35 -77 l-38 -67 -84 0 c-94 0 -89 -3 -142 88 l-31 53 42 69 42 70 87 0 86 0 35 -63z"/>
    <path d="M1860 3265 l-61 -105 61 -103 c33 -57 60 -108 60 -113 0 -5 60 -8 138 -6 l139 3 17 37 c10 20 37 69 62 109 l44 72 -63 105 -62 106 -137 0 -136 0 -62 -105z m323 -31 c20 -36 37 -70 37 -74 0 -7 -67 -130 -75 -138 -2 -2 -39 -4 -84 -4 -90 -2 -89 -2 -144 93 l-26 46 41 71 42 72 85 0 86 0 38 -66z"/>
    <path d="M1395 3007 l-63 -108 66 -109 65 -110 66 0 c36 0 96 3 133 6 l67 7 61 104 61 104 -50 87 c-75 131 -57 120 -209 124 l-133 3 -64 -108z m324 -38 l41 -72 -42 -68 -43 -69 -82 0 -83 0 -40 63 c-22 34 -40 69 -40 77 0 8 18 43 40 78 l39 62 84 0 84 0 42 -71z"/>
    <path d="M2331 3013 c-33 -56 -61 -106 -61 -112 0 -6 28 -57 62 -113 l61 -103 134 3 133 3 26 51 c14 28 42 75 62 105 l35 53 -28 53 c-16 28 -45 77 -64 107 l-36 55 -131 0 -131 0 -62 -102z m300 -15 c12 -24 30 -55 41 -71 l20 -27 -44 -70 -43 -70 -81 0 -82 0 -41 65 c-23 35 -41 70 -41 77 0 7 18 41 40 76 l39 62 86 0 85 0 21 -42z"/>
    <path d="M3278 3045 c-23 -38 -49 -84 -59 -101 -11 -17 -19 -36 -19 -41 0 -5 28 -56 63 -113 l62 -105 135 3 135 3 24 47 c14 26 40 73 58 104 l34 57 -35 64 c-19 34 -46 82 -59 106 l-25 43 -137 2 -137 1 -40 -70z m280 -36 c9 -17 27 -47 40 -66 12 -18 22 -38 22 -43 0 -5 -19 -38 -42 -74 l-42 -66 -81 0 -80 0 -43 69 -43 70 17 33 c9 18 28 50 41 71 l23 37 86 0 c85 0 85 0 102 -31z"/>
    <path d="M1861 2755 l-63 -104 56 -93 c30 -51 58 -101 61 -110 6 -16 23 -18 140 -18 l133 0 38 68 c20 37 50 86 66 109 l28 42 -62 105 -63 106 -136 0 -136 0 -62 -105z m296 18 c4 -10 19 -40 35 -66 15 -26 28 -53 28 -58 0 -6 -18 -42 -40 -80 l-41 -69 -78 0 -78 0 -47 75 -46 76 42 69 41 70 89 0 c75 0 90 -3 95 -17z"/>
    <path d="M2792 2755 l-61 -105 40 -65 c22 -36 49 -86 61 -110 l22 -45 135 0 136 0 34 68 c19 37 47 86 63 109 l28 41 -61 106 -61 106 -138 0 -137 0 -61 -105z m309 -8 c12 -23 30 -54 40 -68 l19 -27 -44 -73 -45 -74 -81 3 -81 4 -45 69 c-50 77 -51 67 11 164 l32 50 87 -3 86 -3 21 -42z"/>
    <path d="M1399 2506 c-32 -55 -59 -105 -59 -112 0 -10 62 -123 117 -212 6 -10 39 -11 144 -6 l136 7 23 46 c12 25 38 72 57 104 l35 57 -60 108 -60 107 -137 0 -136 0 -60 -99z m318 -43 l42 -76 -40 -68 -41 -69 -83 0 -83 0 -41 65 c-23 35 -41 69 -41 75 0 6 17 40 38 75 l37 64 80 3 c44 2 82 5 85 6 3 1 24 -33 47 -75z"/>
    <path d="M2328 2502 l-64 -108 63 -107 64 -107 133 0 134 0 44 78 c25 42 53 91 62 107 l18 30 -60 105 -60 105 -134 3 -135 3 -65 -109z m321 -37 l41 -74 -42 -71 -42 -70 -82 0 -82 0 -30 48 c-56 86 -57 94 -29 144 51 92 44 87 127 91 41 1 80 4 87 5 6 1 30 -32 52 -73z"/>
    <path d="M3279 2538 c-23 -40 -50 -88 -61 -107 -22 -40 -23 -38 49 -164 39 -69 60 -96 70 -93 8 4 70 6 137 6 l122 0 23 48 c13 26 39 73 58 104 l34 58 -59 107 -59 108 -136 3 -136 3 -42 -73z m288 -50 c16 -29 35 -63 43 -74 12 -20 10 -29 -29 -93 l-42 -71 -82 0 -83 0 -42 70 c-23 39 -42 74 -42 79 0 4 18 35 39 69 l40 61 73 4 c40 1 78 4 85 5 6 1 24 -22 40 -50z"/>
    <path d="M1861 2243 c-62 -104 -63 -107 -47 -132 9 -14 37 -63 64 -108 l47 -83 131 0 131 0 64 111 c35 62 63 115 63 118 -1 3 -28 50 -60 103 l-59 98 -135 -1 -135 0 -64 -106z m320 -32 c22 -34 39 -67 39 -73 0 -5 -19 -41 -41 -79 l-41 -69 -78 0 -77 0 -43 67 c-24 37 -43 73 -43 79 0 7 17 42 39 78 l39 66 84 -2 84 -3 38 -64z"/>
    <path d="M2793 2245 l-62 -104 40 -66 c21 -36 49 -86 61 -110 l22 -45 138 0 c76 0 138 4 138 9 0 5 25 53 56 107 33 58 53 106 50 116 -2 11 -28 59 -57 108 l-53 90 -136 0 -135 0 -62 -105z m320 -30 c20 -35 37 -69 37 -74 0 -5 -18 -40 -39 -77 l-39 -68 -76 -3 c-75 -2 -76 -2 -99 30 -14 18 -36 53 -51 78 l-26 45 43 67 42 67 85 0 85 -1 38 -64z"/>
    <path d="M2330 1993 l-66 -107 65 -113 64 -113 133 0 134 0 25 51 c14 27 43 78 64 112 l38 63 -64 107 -64 107 -132 0 -132 0 -65 -107z m307 -15 c16 -29 35 -62 42 -74 12 -19 9 -28 -29 -92 l-42 -72 -83 0 -82 0 -24 38 c-14 20 -33 53 -43 73 l-19 35 39 67 38 66 80 4 c45 1 84 4 88 5 3 1 19 -22 35 -50z"/>
    <path d="M1873 1752 c-78 -132 -79 -135 -56 -169 11 -15 39 -63 62 -105 l42 -78 137 0 137 0 13 29 c7 16 35 66 62 112 l50 82 -62 108 -62 109 -136 0 -135 0 -52 -88z m310 -55 c20 -40 37 -76 37 -79 0 -4 -18 -38 -41 -77 l-41 -71 -78 0 -78 0 -46 75 -47 74 43 75 43 76 85 0 85 0 38 -73z"/>
</g>
</svg>
